<?xml version="1.0" encoding="UTF-8"?>
<svg width="74px" height="17px" viewBox="0 0 74 17" version="1.1" xmlns="http://www.w3.org/2000/svg" xmlns:xlink="http://www.w3.org/1999/xlink">
    <!-- Generator: Sketch 59.1 (86144) - https://sketch.com -->
    <title>qr-1</title>
    <desc>Created with Sketch.</desc>
    <g id="Assets---Updated" stroke="none" stroke-width="1" fill="none" fill-rule="evenodd">
        <g id="qr-1">
            <polygon id="Fill-86" fill="#BFC1C2" points="69.7093104 -1.42108547e-13 73.3027812 6.58199167 65.7539333 13.1615937"></polygon>
            <polygon id="Fill-87" fill="#BFC1C2" points="67.1936958 -1.42108547e-13 70.7826188 6.58199167 63.2319979 13.1615937"></polygon>
            <polygon id="Stroke-88" stroke="#282E31" stroke-width="0.5" points="67.1936958 -1.42108547e-13 70.7826188 6.58199167 63.2319979 13.1615937"></polygon>
            <path d="M16.1013208,9.55077917 L16.1013208,9.55077917 C15.8216625,10.0841958 15.2651208,10.4717708 14.5993521,10.5504729 L14.1105667,10.5504729 L4.45788333,10.5504729 L5.27643125,7.85764375 L12.7221417,7.85764375 L15.02015,7.85764375 L15.5137917,7.85764375 C15.8876458,7.94174167 16.1795604,8.21484792 16.2647375,8.5622625 C16.2765313,8.63657083 16.2842396,8.71789375 16.2842396,8.79520833 C16.2842396,8.83675625 16.2778417,8.87807292 16.2778417,8.91908125 C16.2765313,8.9359625 16.2765313,8.951225 16.2748354,8.96764375 L16.1013208,9.55077917 Z M6.87259583,2.59208125 L6.87259583,2.59208125 L14.310675,2.59208125 L16.6358167,2.59208125 L17.1293813,2.59208125 C17.4105813,2.65590625 17.6468417,2.8268 17.7828938,3.0529625 C17.8294521,3.21291042 17.8561229,3.37694375 17.8561229,3.54937917 C17.8561229,3.64157083 17.8502646,3.73268333 17.8353875,3.82094375 L17.8082542,3.9048875 L17.7064271,4.23719375 C17.4448833,4.80930625 16.8612854,5.22555625 16.1629104,5.30287083 L15.6947063,5.30287083 L6.04973125,5.30287083 L6.87259583,2.59208125 Z M17.5543417,12.7315458 C17.9087708,12.4807167 18.1390958,12.1704562 18.2514063,11.8007646 L19.448125,7.85764375 C19.5541146,7.49928333 19.5062458,7.1988125 19.3043646,6.95715625 C19.1009417,6.71334167 18.7990063,6.5892375 18.4024125,6.5892375 C18.7990063,6.5892375 19.1758667,6.4652875 19.5305271,6.21707917 C19.8790208,5.96601875 20.1080354,5.66300417 20.2170313,5.30287083 L21.4125167,1.3639125 C21.5289896,0.981964583 21.4900625,0.665152083 21.2927292,0.414322917 C21.1028729,0.164572917 20.7987021,0.0389270833 20.3844563,0.0389270833 L4.81123333,0.0389270833 L0.852772917,13.1023937 L16.4321625,13.1023937 C16.8269833,13.1023937 17.2010688,12.9797542 17.5543417,12.7315458 L17.5543417,12.7315458 Z" id="Fill-89" fill="#BFC1C2"></path>
            <polygon id="Fill-90" fill="#BFC1C2" points="37.7308271 0.05203125 36.1643396 5.29678125 24.9295208 5.29678125 26.4913833 0.05203125 23.7011208 0.05203125 19.8145792 13.0710979 22.6061521 13.0710979 24.1663188 7.84600417 35.4030646 7.84600417 33.8414333 13.0710979 36.6371688 13.0710979 40.5237104 0.05203125"></polygon>
            <polygon id="Fill-91" fill="#BFC1C2" points="41.339175 13.1115667 38.5250937 13.1115667 42.4329875 0.0948125 45.2499979 0.0948125"></polygon>
            <polygon id="Fill-92" fill="#BFC1C2" points="64.8108958 0.08348125 53.13755 9.19812292 49.0700938 2.96354583 47.1878729 0.08348125 47.1354563 0.08348125 46.2498458 3.04355833 43.2458313 13.0626187 46.0417979 13.0626187 48.1438604 6.03816875 52.6050583 13.0794229 59.9803917 6.84746667 58.1310083 13.0626187 60.9256646 13.0626187 63.6543375 3.95229375 64.8122063 0.08348125"></polygon>
            <path d="M0.64171875,15.4939042 L0.64171875,15.4939042 L0.7807,15.4939042 C0.952904167,15.4939042 1.08024583,15.4746333 1.16241667,15.4333938 C1.24173542,15.389225 1.29569375,15.3227792 1.31928125,15.2292771 C1.34949792,15.1202813 1.33593125,15.0455104 1.28197292,15.0046563 C1.2251625,14.9616438 1.10868958,14.9408313 0.924460417,14.9408313 L0.78833125,14.9408313 L0.64171875,15.4939042 Z M0.4204125,16.3473708 L0.4204125,16.3473708 L0.548833333,16.3473708 C0.673014583,16.3473708 0.766054167,16.3403563 0.831652083,16.3294875 C0.8991,16.3224729 0.950052083,16.308675 0.991985417,16.2863979 C1.04424792,16.2601896 1.08903333,16.2258875 1.12356667,16.1817188 C1.15786875,16.1376271 1.18315208,16.0936896 1.19671875,16.0399625 C1.21159583,15.9792208 1.21028542,15.9269583 1.19517708,15.8810938 C1.17421042,15.8343042 1.14299167,15.7997708 1.09974792,15.7753354 C1.06367292,15.7600729 1.02759792,15.746275 0.9874375,15.7405708 C0.944116667,15.7337875 0.88730625,15.7311667 0.818085417,15.7311667 L0.706160417,15.7311667 L0.583597917,15.7311667 L0.4204125,16.3473708 Z M9.2148511e-14,16.606525 L0.501041667,14.6817542 L1.0619,14.6817542 C1.21753125,14.6817542 1.33593125,14.6886917 1.40630833,14.7024896 C1.47969167,14.7177521 1.54066458,14.7422646 1.58259792,14.7767979 C1.63832917,14.8208896 1.68157292,14.8790104 1.69645,14.9478458 C1.71872708,15.0195333 1.715875,15.0968479 1.69336667,15.1851854 C1.66808333,15.2857021 1.61998333,15.3739625 1.54544375,15.4414875 C1.47383333,15.5103229 1.38094792,15.5588083 1.27017917,15.5850167 C1.39728958,15.6014354 1.48385417,15.6564729 1.53650208,15.7392604 C1.58745417,15.8234354 1.59462292,15.9324313 1.56317292,16.0604667 C1.54374792,16.134775 1.50813542,16.2120896 1.45849375,16.2824667 C1.40931458,16.3528438 1.35250417,16.4118125 1.27734792,16.460375 C1.20435,16.5154125 1.11871042,16.5541083 1.02459167,16.5761542 C0.92754375,16.5966583 0.7765375,16.606525 0.5624,16.606525 L9.2148511e-14,16.606525 Z" id="Fill-93" fill="#BFC1C2"></path>
            <polygon id="Fill-94" fill="#BFC1C2" points="2.72057917 16.6056771 3.22185208 14.6812917 3.58082917 14.6812917 3.39513542 15.3899188 4.4876375 15.3899188 4.6698625 14.6812917 5.03500625 14.6812917 4.53088125 16.6056771 4.17344583 16.6056771 4.4154875 15.67135 3.32190625 15.67135 3.0844125 16.6056771"></polygon>
            <path d="M6.6401125,15.849875 L6.6401125,15.849875 L7.25369583,15.849875 L7.14308125,15.4115021 C7.13545,15.3824417 7.13105625,15.3523021 7.12473542,15.3136063 C7.12188333,15.2777625 7.11756667,15.2378333 7.11756667,15.1910438 C7.09220625,15.2336708 7.06969792,15.2749875 7.04541667,15.3066688 C7.02645417,15.3468292 6.99801042,15.3798208 6.98274792,15.4115021 L6.6401125,15.849875 Z M7.43615208,16.6054458 L7.3135125,16.1104938 L6.43406875,16.1104938 L6.05057917,16.6054458 L5.67233125,16.6054458 L7.26564375,14.6035146 L7.81478542,16.6054458 L7.43615208,16.6054458 Z" id="Fill-95" fill="#BFC1C2"></path>
            <path d="M9.60735833,15.5013042 L9.60735833,15.5013042 L9.67465208,15.5013042 C9.86173333,15.5013042 9.99477917,15.4816479 10.0682396,15.4429521 C10.137075,15.4032542 10.1877188,15.3344188 10.2150833,15.2391438 C10.2386708,15.1342333 10.2237938,15.0583833 10.1669833,15.0132125 C10.1132563,14.9701229 9.9978625,14.9483083 9.81386458,14.9483083 L9.75119583,14.9483083 L9.60735833,15.5013042 Z M9.52195,15.7441167 L9.29779167,16.6054458 L8.95978125,16.6054458 L9.45928125,14.6821396 L9.96225,14.6821396 C10.1101729,14.6821396 10.2209417,14.6891542 10.2984875,14.7055729 C10.3764958,14.7208354 10.4363896,14.7481229 10.4855688,14.7857396 C10.5410688,14.8363833 10.5766813,14.89435 10.5961063,14.9690438 C10.6144521,15.0405 10.6099042,15.1206667 10.5902479,15.2090042 C10.5469271,15.3645583 10.4753167,15.4860417 10.3688646,15.5727604 C10.2583271,15.6610208 10.120425,15.7119729 9.94868333,15.7313979 L10.4814063,16.6054458 L10.0740979,16.6054458 L9.56103125,15.7441167 L9.52195,15.7441167 Z" id="Fill-96" fill="#BFC1C2"></path>
            <path d="M12.2927875,15.849875 L12.2927875,15.849875 L12.9089917,15.849875 L12.7971438,15.4115021 C12.7940604,15.3824417 12.7865833,15.3523021 12.7818042,15.3136063 C12.7776417,15.2777625 12.7728625,15.2378333 12.7717833,15.1910438 C12.7521271,15.2336708 12.7236833,15.2749875 12.7024854,15.3066688 C12.6799771,15.3468292 12.6563896,15.3798208 12.6367333,15.4115021 L12.2927875,15.849875 Z M13.0901375,16.6054458 L12.9705813,16.1104938 L12.0939896,16.1104938 L11.7076479,16.6054458 L11.3277042,16.6054458 L12.9197063,14.6035146 L13.4687708,16.6054458 L13.0901375,16.6054458 Z" id="Fill-156" fill="#BFC1C2"></path>
            <polygon id="Fill-157" fill="#BFC1C2" points="15.5959625 14.9459188 15.1591313 16.6056771 14.8030063 16.6056771 15.2308188 14.9459188 14.6478375 14.9459188 14.7146688 14.6826021 16.2468542 14.6826021 16.1747813 14.9459188"></polygon>
            <polygon id="Fill-158" fill="#BFC1C2" points="18.8319979 16.6056771 19.3331938 14.6812917 19.6937125 14.6812917 19.1912063 16.6056771"></polygon>
            <path d="M20.6418375,16.6056771 L21.1673146,14.6028208 L22.2681417,15.7827354 C22.295275,15.8144167 22.3236417,15.8502604 22.3564021,15.8863354 C22.3817625,15.9261104 22.4178375,15.9702021 22.4434292,16.0159125 L22.7919229,14.6812917 L23.124075,14.6812917 L22.6048417,16.6788292 L21.4798104,15.4836521 C21.4513667,15.44935 21.4212271,15.4161271 21.3976396,15.381825 C21.3705833,15.34575 21.3436812,15.3070542 21.3224833,15.2672792 L20.9756854,16.6056771 L20.6418375,16.6056771 Z" id="Fill-159" fill="#BFC1C2"></path>
            <polygon id="Fill-160" fill="#BFC1C2" points="25.2120312 14.9459188 24.7842187 16.6056771 24.4219271 16.6056771 24.8541333 14.9459188 24.2663729 14.9459188 24.3349771 14.6826021 25.8671625 14.6826021 25.8015646 14.9459188"></polygon>
            <polygon id="Fill-161" fill="#BFC1C2" points="26.5792583 16.6056771 27.0791438 14.6812917 28.313325 14.6812917 28.2444896 14.9459188 27.3693625 14.9459188 27.2408646 15.4313896 28.1203854 15.4313896 28.046925 15.7041104 27.1716438 15.7041104 27.0101542 16.3259417 27.8869771 16.3259417 27.8149042 16.6056771"></polygon>
            <path d="M29.8093583,15.5013042 L29.8093583,15.5013042 L29.8751875,15.5013042 C30.0637333,15.5013042 30.1980896,15.4816479 30.2702396,15.4429521 C30.3407708,15.4032542 30.3912604,15.3344188 30.4135375,15.2391438 C30.4409021,15.1342333 30.4301875,15.0583833 30.3733771,15.0132125 C30.3152563,14.9701229 30.2011729,14.9483083 30.0176375,14.9483083 L29.9531958,14.9483083 L29.8093583,15.5013042 Z M29.7241813,15.7441167 L29.4997917,16.6054458 L29.1647875,16.6054458 L29.6612813,14.6821396 L30.1637875,14.6821396 C30.3124042,14.6821396 30.4211688,14.6891542 30.5035708,14.7055729 C30.5770313,14.7208354 30.6414729,14.7481229 30.6875688,14.7857396 C30.7430688,14.8363833 30.7786813,14.89435 30.7983375,14.9690438 C30.8160667,15.0405 30.8147563,15.1206667 30.7893958,15.2090042 C30.7520104,15.3645583 30.6770854,15.4860417 30.5693229,15.5727604 C30.4603271,15.6610208 30.322425,15.7119729 30.1506833,15.7313979 L30.6829438,16.6054458 L30.2763292,16.6054458 L29.7643417,15.7441167 L29.7241813,15.7441167 Z" id="Fill-162" fill="#BFC1C2"></path>
            <polygon id="Fill-163" fill="#BFC1C2" points="31.8300979 16.6056771 32.3342229 14.6812917 33.5652438 14.6812917 33.5008021 14.9459188 32.6230542 14.9459188 32.5000292 15.4270729 33.3753875 15.4270729 33.3006167 15.7001792 32.4266458 15.7001792 32.1934688 16.6056771"></polygon>
            <path d="M34.9477333,15.849875 L34.9477333,15.849875 L35.5626271,15.849875 L35.4503167,15.4115021 C35.4456917,15.3824417 35.4385229,15.3523021 35.4336667,15.3136063 C35.4295042,15.2777625 35.424725,15.2378333 35.4218729,15.1910438 C35.4011375,15.2336708 35.3768563,15.2749875 35.3530375,15.3066688 C35.3289875,15.3468292 35.3095625,15.3798208 35.2857438,15.4115021 L34.9477333,15.849875 Z M35.7450833,16.6054458 L35.6194375,16.1104938 L34.7425375,16.1104938 L34.3566583,16.6054458 L33.9812625,16.6054458 L35.5715688,14.6035146 L36.1250271,16.6054458 L35.7450833,16.6054458 Z" id="Fill-164" fill="#BFC1C2"></path>
            <path d="M39.3715458,15.1471063 C39.2863688,15.0726438 39.1947938,15.0147542 39.0916563,14.9789104 C38.9856667,14.9404458 38.8733563,14.9209438 38.7490208,14.9209438 C38.5052063,14.9209438 38.2915313,14.9900104 38.1057604,15.1276813 C37.9204521,15.2614208 37.7961167,15.4353208 37.7406167,15.6501521 C37.6868896,15.8601271 37.7153333,16.0324854 37.8276438,16.1633729 C37.9399542,16.2981917 38.1103854,16.3672583 38.334775,16.3672583 C38.4662792,16.3672583 38.5934667,16.3467542 38.7252021,16.3067479 C38.8508479,16.2680521 38.9811188,16.2044583 39.1095396,16.1219021 L39.0212792,16.4776417 C38.9076583,16.5381521 38.7881792,16.5837854 38.6683917,16.613925 C38.54845,16.6445271 38.4230354,16.6580938 38.2869063,16.6580938 C38.1193271,16.6580938 37.9696313,16.6347375 37.8394375,16.5850958 C37.7063146,16.5381521 37.5973188,16.467775 37.5120646,16.3740417 C37.4297396,16.2805396 37.3772458,16.1727771 37.3475688,16.0489042 C37.3250604,15.9217167 37.3309188,15.78975 37.3637563,15.6462208 C37.4043792,15.5067771 37.4683583,15.3745792 37.5553854,15.2491646 C37.6464979,15.1276813 37.7618146,15.0147542 37.8979438,14.9209438 C38.0264417,14.8272104 38.1732854,14.7584521 38.3271438,14.7070375 C38.4816188,14.6590146 38.6443417,14.6367375 38.8058313,14.6367375 C38.9347917,14.6367375 39.0555813,14.6509208 39.1650396,14.6852229 C39.2758854,14.7169042 39.3804875,14.7680104 39.4716,14.8353042 L39.3715458,15.1471063 Z" id="Fill-165" fill="#BFC1C2"></path>
            <polygon id="Fill-166" fill="#BFC1C2" points="40.3736292 16.6056771 40.8762125 14.6812917 42.1076958 14.6812917 42.0373188 14.9459188 41.16065 14.9459188 41.0365458 15.4313896 41.9129833 15.4313896 41.8395229 15.7041104 40.9660146 15.7041104 40.804525 16.3259417 41.6798063 16.3259417 41.6064229 16.6056771"></polygon>
            <polygon id="Fill-167" fill="#BFC1C2" points="44.8262708 16.6056771 45.3233813 14.6812917 46.5590271 14.6812917 46.4899604 14.9459188 45.6133688 14.9459188 45.4907292 15.4270729 46.365625 15.4270729 46.2957104 15.7001792 45.4188875 15.7001792 45.1841688 16.6056771"></polygon>
            <path d="M49.5280458,15.6466063 L49.5280458,15.6466063 C49.5547167,15.5500208 49.5593417,15.4575979 49.5398396,15.3695688 C49.5232667,15.2823875 49.4830292,15.2026063 49.4262188,15.1366229 C49.3694083,15.0676333 49.296025,15.0151396 49.2077646,14.9791417 C49.1179625,14.9447625 49.0191417,14.9255688 48.9070625,14.9255688 C48.8023833,14.9255688 48.6900729,14.9419875 48.5839292,14.9791417 C48.47925,15.0140604 48.3774229,15.0676333 48.2832271,15.1366229 C48.1857938,15.1999854 48.1110229,15.2823875 48.0455021,15.3669479 C47.9826021,15.4562875 47.9391271,15.5500208 47.9135354,15.6466063 C47.8850917,15.7431917 47.8820854,15.8382354 47.9017417,15.9237208 C47.9180833,16.0104396 47.9585521,16.0891417 48.0171354,16.1583625 C48.075025,16.2243458 48.1484083,16.2783042 48.2397521,16.3137625 C48.3264708,16.3497604 48.4282979,16.3677208 48.5360604,16.3677208 C48.6407396,16.3677208 48.748425,16.3497604 48.8591938,16.3137625 C48.9638729,16.2783042 49.0639271,16.2243458 49.1598958,16.1583625 C49.2540917,16.0891417 49.3351063,16.0104396 49.3960792,15.9211 C49.4605208,15.8353833 49.5038417,15.7431917 49.5280458,15.6466063 Z M49.9078354,15.6466063 C49.8706813,15.7847396 49.8062396,15.9156271 49.7148958,16.0381896 C49.6220104,16.1583625 49.5097,16.2685146 49.3722604,16.3607063 C49.2332792,16.4572917 49.085125,16.5302896 48.9295708,16.5827063 C48.7740167,16.6322708 48.6153792,16.6574 48.459825,16.6574 C48.3011875,16.6574 48.1532646,16.6322708 48.0243042,16.578775 C47.8941104,16.5302896 47.7804896,16.4572917 47.6921521,16.3607063 C47.606975,16.2685146 47.5519375,16.1594417 47.5217208,16.0381896 C47.4979021,15.9156271 47.5009854,15.7858188 47.5381396,15.6466063 C47.5739833,15.5087813 47.6340313,15.3789729 47.7323896,15.2561792 C47.8134813,15.1366229 47.9287979,15.0260854 48.0690896,14.9310417 C48.2083021,14.8357667 48.3533729,14.7614583 48.5076167,14.7103521 C48.6662542,14.6607104 48.8262021,14.6386646 48.9835292,14.6386646 C49.1450188,14.6386646 49.2900896,14.6607104 49.4185875,14.7103521 C49.5474708,14.7614583 49.6534604,14.8357667 49.7463458,14.9310417 C49.8346063,15.0287063 49.8896438,15.1366229 49.913925,15.2620375 C49.9469167,15.3833667 49.9392854,15.5103229 49.9078354,15.6466063 L49.9078354,15.6466063 Z" id="Fill-168" fill="#BFC1C2"></path>
            <path d="M51.6477604,15.5013042 L51.6477604,15.5013042 L51.7179063,15.5013042 C51.9064521,15.5013042 52.0380333,15.4816479 52.1129583,15.4429521 C52.1835667,15.4032542 52.2296625,15.3344188 52.2563333,15.2391438 C52.2847,15.1342333 52.2715958,15.0583833 52.2160958,15.0132125 C52.1592854,14.9701229 52.0380333,14.9483083 51.8585833,14.9483083 L51.7928313,14.9483083 L51.6477604,15.5013042 Z M51.5625833,15.7441167 L51.3407375,16.6054458 L51.0029583,16.6054458 L51.5011479,14.6821396 L52.0065833,14.6821396 C52.15335,14.6821396 52.2656604,14.6891542 52.3422042,14.7055729 C52.4179771,14.7208354 52.4811083,14.7481229 52.5274354,14.7857396 C52.5857875,14.8363833 52.6203208,14.89435 52.6410563,14.9690438 C52.6587854,15.0405 52.6587854,15.1206667 52.633425,15.2090042 C52.5930333,15.3645583 52.5167208,15.4860417 52.4121188,15.5727604 C52.3030458,15.6610208 52.1638333,15.7119729 51.9901646,15.7313979 L52.5257396,16.6054458 L52.1173521,16.6054458 L51.602975,15.7441167 L51.5625833,15.7441167 Z" id="Fill-169" fill="#BFC1C2"></path>
            <path d="M57.5936604,15.6560104 C57.5936604,15.6424438 57.5995958,15.5994313 57.6085375,15.5334479 C57.6131625,15.4755583 57.6221042,15.4313896 57.6251875,15.3926938 C57.6026792,15.4353208 57.5818667,15.4794896 57.5504167,15.5222708 C57.5233604,15.56775 57.4890583,15.6103771 57.4516729,15.6573208 L56.6065313,16.6847646 L56.2981979,15.6365854 C56.2846313,15.5926479 56.2756896,15.5524875 56.2726063,15.5127125 C56.2638958,15.4727063 56.2579604,15.4324688 56.2562646,15.3926938 C56.2430833,15.4324688 56.2265104,15.4755583 56.2099375,15.5208063 C56.1922083,15.5648979 56.1710104,15.6103771 56.1441083,15.6573208 L55.6594854,16.6056771 L55.3275646,16.6056771 L56.3762063,14.5985042 L56.7111333,15.8144167 C56.7155271,15.8339188 56.7231583,15.8656 56.7319458,15.9107708 C56.7438938,15.9567125 56.7544542,16.0102083 56.7633958,16.0777333 C56.8022458,16.0216167 56.8503458,15.9494667 56.9220333,15.8656 C56.9396854,15.8421667 56.9490896,15.8284458 56.9580313,15.8144167 L57.9137875,14.5985042 L57.9304375,16.6056771 L57.5936604,16.6056771 L57.5936604,15.6560104 Z" id="Fill-170" fill="#BFC1C2"></path>
            <path d="M61.2940458,15.6466063 L61.2940458,15.6466063 C61.3211792,15.5500208 61.3259583,15.4575979 61.3047604,15.3695688 C61.2881875,15.2823875 61.2494917,15.2026063 61.1926813,15.1366229 C61.1358708,15.0676333 61.0609458,15.0151396 60.9696021,14.9791417 C60.8828063,14.9447625 60.7796688,14.9255688 60.6761458,14.9255688 C60.5673042,14.9255688 60.4565354,14.9419875 60.3487729,14.9791417 C60.2423979,15.0140604 60.1423438,15.0676333 60.046375,15.1366229 C59.9539521,15.1999854 59.8759438,15.2823875 59.8115021,15.3669479 C59.7488333,15.4562875 59.7025063,15.5500208 59.6753729,15.6466063 C59.6528646,15.7431917 59.6470063,15.8382354 59.6664313,15.9237208 C59.6847771,16.0104396 59.7221625,16.0891417 59.7802833,16.1583625 C59.8386354,16.2243458 59.9120188,16.2783042 60.0015896,16.3137625 C60.0900813,16.3497604 60.1915229,16.3677208 60.296125,16.3677208 C60.4104396,16.3677208 60.5146563,16.3497604 60.6210313,16.3137625 C60.7301042,16.2783042 60.8306208,16.2243458 60.9235063,16.1583625 C61.0189354,16.0891417 61.0952479,16.0104396 61.1625417,15.9211 C61.2223583,15.8353833 61.267375,15.7431917 61.2940458,15.6466063 Z M61.6699042,15.6466063 C61.6338292,15.7847396 61.572625,15.9156271 61.4780438,16.0381896 C61.3900146,16.1583625 61.2733104,16.2685146 61.1389542,16.3607063 C60.9992792,16.4572917 60.8513563,16.5302896 60.6958021,16.5827063 C60.5400167,16.6322708 60.3819958,16.6574 60.2245146,16.6574 C60.0647208,16.6574 59.9164125,16.6322708 59.7876833,16.578775 C59.6563333,16.5302896 59.5486479,16.4572917 59.4630083,16.3607063 C59.3734375,16.2685146 59.3166271,16.1594417 59.2894938,16.0381896 C59.2611271,15.9156271 59.265675,15.7858188 59.3012875,15.6466063 C59.3404458,15.5087813 59.4018042,15.3789729 59.4900646,15.2561792 C59.5800979,15.1366229 59.6947979,15.0260854 59.8309271,14.9310417 C59.9719125,14.8357667 60.1169833,14.7614583 60.2743104,14.7103521 C60.431175,14.6607104 60.5895813,14.6386646 60.7495292,14.6386646 C60.9068563,14.6386646 61.0519271,14.6607104 61.18505,14.7103521 C61.3123917,14.7614583 61.4201542,14.8357667 61.5112667,14.9310417 C61.5982167,15.0287063 61.6532542,15.1366229 61.6803875,15.2620375 C61.7100646,15.3833667 61.7070583,15.5103229 61.6699042,15.6466063 L61.6699042,15.6466063 Z" id="Fill-171" fill="#BFC1C2"></path>
            <path d="M62.7698063,16.6056771 L63.2905042,14.6028208 L64.3884792,15.7827354 C64.4214708,15.8144167 64.4452896,15.8502604 64.4795917,15.8863354 C64.506725,15.9261104 64.538175,15.9702021 64.5683146,16.0159125 L64.9168854,14.6812917 L65.2459542,14.6812917 L64.7298042,16.6788292 L63.6047729,15.4836521 C63.5717813,15.44935 63.5464208,15.4161271 63.5195188,15.381825 C63.4941583,15.34575 63.4686438,15.3070542 63.4462896,15.2672792 L63.098875,16.6056771 L62.7698063,16.6056771 Z" id="Fill-172" fill="#BFC1C2"></path>
            <polygon id="Fill-173" fill="#BFC1C2" points="66.1929229 16.6056771 66.6911125 14.6812917 67.9252167 14.6812917 67.8581542 14.9459188 66.9812542 14.9459188 66.8604646 15.4313896 67.7309667 15.4313896 67.6647521 15.7041104 66.7853083 15.7041104 66.6238188 16.3259417 67.4989458 16.3259417 67.4257167 16.6056771"></polygon>
            <path d="M69.2491229,16.6056771 L69.4763646,15.7248458 L69.0035354,14.6812917 L69.3852521,14.6812917 L69.6752396,15.3348042 C69.6828708,15.3512229 69.6935854,15.3735 69.7036063,15.3981667 C69.7101583,15.4270729 69.7219521,15.4575979 69.7261146,15.4865042 C69.7545583,15.4575979 69.7770667,15.4313896 69.7982646,15.4007875 C69.8220833,15.3735 69.8445917,15.3486021 69.8640167,15.3265563 L70.5116708,14.6812917 L70.8706479,14.6812917 L69.8368833,15.7248458 L69.6083313,16.6056771 L69.2491229,16.6056771 Z" id="Fill-174" fill="#BFC1C2"></path>
        </g>
    </g>
</svg>