<?xml version="1.0" encoding="UTF-8"?>
<svg width="45px" height="45px" viewBox="0 0 45 45" version="1.1" xmlns="http://www.w3.org/2000/svg" xmlns:xlink="http://www.w3.org/1999/xlink">
    <!-- Generator: Sketch 59.1 (86144) - https://sketch.com -->
    <title>qr-4</title>
    <desc>Created with Sketch.</desc>
    <g id="Assets---Updated" stroke="none" stroke-width="1" fill="none" fill-rule="evenodd">
        <g id="qr-4" fill-rule="nonzero">
            <path d="M6.03961325e-14,44.1346154 L4.03463942,33.6452885 C1.75067308,30.1163582 0.548004808,26.0320673 0.548004808,21.8116947 C0.548004808,9.78317308 10.3311779,-1.03028697e-13 22.3578606,-1.03028697e-13 C34.3827043,-1.03028697e-13 44.1677163,9.78317308 44.1677163,21.8116947 C44.1677163,33.8365385 34.3827043,43.6215505 22.3578606,43.6215505 C18.2551803,43.6215505 14.2646755,42.4685337 10.7890745,40.2875481 L6.03961325e-14,44.1346154 Z" id="Path" fill="#BFC1C2"></path>
            <path d="M27.8489423,32.639387 C25.213738,32.639387 19.8146034,29.4984736 17.2419231,26.9239543 C14.9414063,24.6234375 11.5283293,19.156262 11.5283293,16.318774 C11.5283293,13.483125 14.5552284,10.3256611 16.605649,10.3256611 L16.8906851,10.3256611 L17.1058413,10.5095553 C17.6501683,10.9729687 20.3938702,13.3304928 20.9437139,14.4025962 C21.738137,15.9509856 19.7962139,18.16875 18.7719231,19.1838462 C19.2298197,19.761274 20.2706611,20.9970433 21.7197476,22.4461298 C23.0860817,23.8143029 24.7521635,24.5517187 25.5263582,24.8459495 C26.1994111,24.1839303 27.573101,23.0014904 28.8290986,23.0014904 L29.0129928,23.0217187 L29.7761538,23.2295192 C30.8390625,23.7756851 33.1947476,26.519387 33.6544832,27.061875 L33.8383774,27.2788702 L33.8383774,27.5620673 C33.8383774,29.6143269 30.6845913,32.639387 27.8489423,32.639387 Z" id="Path" fill="#282E31"></path>
            <path d="M16.3573918,11.9053125 C15.1326563,12.1995433 13.0748798,14.4522476 13.0748798,16.318774 C13.0748798,18.6634255 16.2580889,23.7517788 18.3360938,25.8297837 C20.8444111,28.338101 25.8224279,31.0909976 27.8489423,31.0909976 C29.7154688,31.0909976 31.9663341,29.0313822 32.256887,27.8084856 C31.2252404,26.6131731 29.7320192,25.0114543 29.1362019,24.6418269 L28.7537019,24.5498798 C28.1358173,24.6142428 27.0471635,25.4472837 26.3152644,26.2545793 L25.9860938,26.615012 L25.5171635,26.4752524 C25.2321274,26.3906611 22.6741587,25.5870433 20.623738,23.5384615 C19.2813101,22.1960337 17.2106611,19.9065505 17.0304447,19.2629207 L16.8998798,18.8013462 L17.2584736,18.4795313 C18.6523918,17.2272115 19.794375,15.5574519 19.5626683,15.10875 C19.283149,14.5589063 17.6005168,12.9792548 16.3573918,11.9053125 Z" id="Path" fill="#282E31"></path>
        </g>
    </g>
</svg>