<svg xmlns="http://www.w3.org/2000/svg" width="57.21" height="63.873" viewBox="0 0 57.21 63.873">
  <g id="Group_1134" data-name="Group 1134" transform="translate(-278.908 -1833.996)">
    <path id="Path_528" data-name="Path 528" d="M126.781,8.392a10.089,10.089,0,0,1,19.88-.059L116.116,57.294a9.057,9.057,0,0,1-3-17.608c-.037-1.505.1-2.955.1-3.763,0-2.084.011-4.169.018-6.249A23.5,23.5,0,0,1,126.781,8.392" transform="translate(171.86 1833.997)" fill="#4fc7fb" fill-rule="evenodd"/>
    <path id="Path_529" data-name="Path 529" d="M144.522,53.212a9.462,9.462,0,0,1-18.9,0H114.054a6.308,6.308,0,1,1-.007-12.617V27.979A21.039,21.039,0,0,1,127.715,8.272V8a7.36,7.36,0,0,1,14.719,0v.277A21.039,21.039,0,0,1,156.1,27.979V40.6a6.308,6.308,0,1,1-.011,12.617Zm-4.217,0H129.844a5.257,5.257,0,0,0,10.462,0m-9.905-41.4a16.821,16.821,0,0,0-12.148,16.166V40.6a4.208,4.208,0,0,1-4.206,4.206,2.1,2.1,0,1,0,.007,4.206h42.037A2.1,2.1,0,1,0,156.1,44.8a4.2,4.2,0,0,1-4.2-4.206V27.979a16.829,16.829,0,0,0-12.148-16.166l-1.52-.439V8a3.154,3.154,0,0,0-6.308,0v3.379Z" transform="translate(173.708 1835.718)" fill="#343c3f" fill-rule="evenodd"/>
  </g>
</svg>
