<svg xmlns="http://www.w3.org/2000/svg" width="68.804" height="55.539" viewBox="0 0 68.804 55.539">
  <g id="Group_1269" data-name="Group 1269" transform="translate(-342.147 -2384.101)">
    <path id="Path_522" data-name="Path 522" d="M148.124,152.513c-12.513-.292-23.068,7.474-23.9,17.907a17.813,17.813,0,0,0,3.475,11.753Z" transform="translate(217.957 2244.097)" fill="#4fc7fb" fill-rule="evenodd"/>
    <path id="Path_533" data-name="Path 533" d="M168.559,149.116c-10.171,0-18.774,5.593-21.54,13.24-12.218.17-22.1,8.4-22.1,18.5a16.678,16.678,0,0,0,5.29,11.912v10.569a1.324,1.324,0,0,0,2.169,1.014l7.334-6.1a26.717,26.717,0,0,0,7.688,1.118c10.171,0,18.774-5.593,21.541-13.236a26.513,26.513,0,0,0,7.308-1.107l7.334,6.105a1.323,1.323,0,0,0,2.169-1.018V179.544a16.672,16.672,0,0,0,5.29-11.916C191.04,157.42,180.954,149.116,168.559,149.116ZM183.1,178.975v8.315l-5.722-4.763a1.322,1.322,0,0,0-1.262-.236,23.98,23.98,0,0,1-6.489,1.166,15.411,15.411,0,0,0,.247-2.6,15.984,15.984,0,0,0-3.04-9.256h5.036l2.047,5.737a1.334,1.334,0,0,0,.682.749,1.32,1.32,0,0,0,1.808-1.642L169.8,157.929a1.322,1.322,0,0,0-2.49,0l-3.637,10.189a24.492,24.492,0,0,0-13.845-5.666c2.689-6.209,10.06-10.691,18.729-10.691,10.938,0,19.836,7.12,19.836,15.87a14.182,14.182,0,0,1-4.866,10.374A1.307,1.307,0,0,0,183.1,178.975ZM147.4,196.724a23.945,23.945,0,0,1-7.563-1.21,1.322,1.322,0,0,0-1.265.24l-5.718,4.759V192.2a1.32,1.32,0,0,0-.424-.97,14.183,14.183,0,0,1-4.866-10.374c0-8.75,8.9-15.87,19.836-15.87s19.836,7.12,19.836,15.87S158.336,196.724,147.4,196.724Zm18.785-27.771,2.376-6.648,2.372,6.648Z" transform="translate(219.912 2234.985)" fill-rule="evenodd"/>
    <path id="Path_534" data-name="Path 534" d="M141.7,164.53c.022-.432.026-.712.026-.778a1.323,1.323,0,1,0-2.645,0l0,.173a18.958,18.958,0,0,0-2.545-.17q.061-1.262.162-2.276a15.381,15.381,0,0,0,4.442-1.918,1.332,1.332,0,0,0,.576-.841,1.33,1.33,0,0,0-1.044-1.564,1.335,1.335,0,0,0-1,.207,11.251,11.251,0,0,1-2.6,1.232,11.372,11.372,0,0,1,.557-2.206,1.322,1.322,0,0,0-2.376-1.162,14.625,14.625,0,0,0-.978,4.095,27.273,27.273,0,0,1-4.453.461,1.323,1.323,0,0,0,0,2.645,28.6,28.6,0,0,0,4.161-.369c-.044.609-.085,1.269-.114,1.977a6.443,6.443,0,0,0-5.371,6.327,5.079,5.079,0,0,0,5.29,5.29,7.411,7.411,0,0,0,1.28-.122,5.135,5.135,0,0,0,2.1,2.627,1.373,1.373,0,0,0,.616.144,1.322,1.322,0,0,0,1.192-.716,1.3,1.3,0,0,0,.092-1,1.285,1.285,0,0,0-.649-.76,3.428,3.428,0,0,1-.893-1.306c2.368-1.656,3.409-4.814,3.855-7.293,1.922.771,2.992,1.963,2.992,3.132a4.553,4.553,0,0,1-3.066,4.036,1.322,1.322,0,0,0,.837,2.509c.2-.066,4.873-1.678,4.873-6.544C147.02,168.042,145.209,165.706,141.7,164.53Zm-7.909,8.478a2.492,2.492,0,0,1-2.645-2.645,3.7,3.7,0,0,1,2.652-3.545c0,.3-.007.587-.007.9a25.4,25.4,0,0,0,.483,5.257c-.159.018-.321.03-.483.033m2.933-1.321a24.662,24.662,0,0,1-.288-3.969c0-.461,0-.893.011-1.321a15.909,15.909,0,0,1,2.368.166,10.389,10.389,0,0,1-2.092,5.124" transform="translate(229.546 2249.441)" fill-rule="evenodd"/>
  </g>
</svg>
