<svg xmlns="http://www.w3.org/2000/svg" width="64.734" height="63.5" viewBox="0 0 64.734 63.5">
  <g id="Group_1267" data-name="Group 1267" transform="translate(-14051.266 -1236.5)">
    <rect id="Rectangle_242" data-name="Rectangle 242" width="27" height="27" transform="translate(14089 1273)" fill="#4fc7fb"/>
    <path id="Icon_awesome-qrcode" data-name="Icon awesome-qrcode" d="M0,27.147H24.9V2.25H0Zm8.3-16.6h8.3v8.3H8.3Zm24.9-8.3v24.9h24.9V2.25Zm16.6,16.6H41.5v-8.3h8.3ZM0,60.344H24.9v-24.9H0Zm8.3-16.6h8.3v8.3H8.3Zm45.645-8.3h4.15v16.6H45.645V47.9H41.5V60.344H33.2v-24.9H45.645V39.6h8.3Zm0,20.748h4.15v4.15h-4.15Zm-8.3,0h4.15v4.15h-4.15Z" transform="translate(14052.766 1235.75)" fill="none" stroke="#000" stroke-width="3"/>
  </g>
</svg>
