<svg xmlns="http://www.w3.org/2000/svg" width="71.498" height="48.111" viewBox="0 0 71.498 48.111">
  <g id="Group_1137" data-name="Group 1137" transform="translate(-235.079 -2708.551)">
    <path id="Path_518" data-name="Path 518" d="M95.2,237.094h23.127L95.2,261.778Z" transform="translate(139.991 2471.565)" fill="#4fc7fb" fill-rule="evenodd"/>
    <path id="Path_519" data-name="Path 519" d="M95.2,237.094h23.127L95.2,261.778Z" transform="translate(139.991 2471.565)" fill="none" stroke="#4fc7fb" stroke-linecap="round" stroke-linejoin="round" stroke-width="0.216"/>
    <rect id="Rectangle_65" data-name="Rectangle 65" width="2.645" height="29.092" transform="translate(270.874 2719.637)" fill="#343c3f"/>
    <rect id="Rectangle_66" data-name="Rectangle 66" width="6.611" height="2.645" transform="translate(281.45 2726.244)" fill="#343c3f"/>
    <rect id="Rectangle_67" data-name="Rectangle 67" width="2.645" height="3.966" transform="translate(278.809 2735.504)" fill="#343c3f"/>
    <rect id="Rectangle_68" data-name="Rectangle 68" width="2.645" height="3.969" transform="translate(288.065 2728.889)" fill="#343c3f"/>
    <rect id="Rectangle_69" data-name="Rectangle 69" width="6.611" height="2.645" transform="translate(281.45 2732.859)" fill="#343c3f"/>
    <rect id="Rectangle_70" data-name="Rectangle 70" width="6.611" height="2.645" transform="translate(281.45 2739.47)" fill="#343c3f"/>
    <rect id="Rectangle_71" data-name="Rectangle 71" width="6.611" height="2.645" transform="translate(256.328 2726.244)" fill="#343c3f"/>
    <rect id="Rectangle_72" data-name="Rectangle 72" width="2.645" height="10.58" transform="translate(253.683 2728.889)" fill="#343c3f"/>
    <rect id="Rectangle_73" data-name="Rectangle 73" width="2.645" height="10.58" transform="translate(262.938 2728.889)" fill="#343c3f"/>
    <rect id="Rectangle_74" data-name="Rectangle 74" width="6.611" height="2.645" transform="translate(256.328 2739.47)" fill="#343c3f"/>
    <path id="Path_538" data-name="Path 538" d="M99.382,239.711a1.323,1.323,0,0,0-1.324,1.321v29.1a1.322,1.322,0,0,0,1.324,1.321h19.836a1.323,1.323,0,1,0,0-2.645H100.707V242.356h22.478v27.771a1.322,1.322,0,0,0,1.324,1.321h25.123a1.32,1.32,0,0,0,1.324-1.321v-29.1a1.32,1.32,0,0,0-1.324-1.321H129.8a1.327,1.327,0,0,0-.948.38,1.308,1.308,0,0,0-.395.941,1.323,1.323,0,0,0,1.343,1.324h18.512V268.8H125.829V241.032a1.319,1.319,0,0,0-1.321-1.321Z" transform="translate(147.686 2478.602)" fill="#343c3f" fill-rule="evenodd"/>
    <path id="Path_539" data-name="Path 539" d="M97.166,237.919h-.03a1.328,1.328,0,0,0-1.228,1.321V263.1a1.323,1.323,0,1,0,2.645,0V240.56h63.474v32.87a1.323,1.323,0,0,0,1.321,1.343,1.329,1.329,0,0,0,1.324-1.343V239.24a1.328,1.328,0,0,0-1.228-1.321H97.166m66.164,31.058h0a1.329,1.329,0,0,1,1.343,1.339v11.241a1.324,1.324,0,0,1-1.1,1.3,1.085,1.085,0,0,1-.243.018h-66.1a1.319,1.319,0,0,1-1.321-1.321V261.721a1.324,1.324,0,0,1,1.3-1.339v0a1.3,1.3,0,0,1,.952.384,1.315,1.315,0,0,1,.391.952v18.512h63.474v-9.916a1.322,1.322,0,0,1,1.3-1.339" transform="translate(141.904 2473.783)" fill="#343c3f" fill-rule="evenodd"/>
  </g>
</svg>
