<svg xmlns="http://www.w3.org/2000/svg" width="45.236" height="39" viewBox="0 0 45.236 39">
  <g id="Group_1268" data-name="Group 1268" transform="translate(-1303.764 -1242)">
    <rect id="Rectangle_243" data-name="Rectangle 243" width="15" height="37" transform="translate(1334 1244)" fill="#4fc7fb"/>
    <path id="Icon_awesome-signal" data-name="Icon awesome-signal" d="M15.188,20.25H11.813a1.125,1.125,0,0,0-1.125,1.125v13.5A1.125,1.125,0,0,0,11.813,36h3.375a1.125,1.125,0,0,0,1.125-1.125v-13.5A1.125,1.125,0,0,0,15.188,20.25Zm-9,6.75H2.813a1.125,1.125,0,0,0-1.125,1.125v6.75A1.125,1.125,0,0,0,2.813,36H6.188a1.125,1.125,0,0,0,1.125-1.125v-6.75A1.125,1.125,0,0,0,6.188,27Zm18-13.5H20.813a1.125,1.125,0,0,0-1.125,1.125v20.25A1.125,1.125,0,0,0,20.813,36h3.375a1.125,1.125,0,0,0,1.125-1.125V14.625A1.125,1.125,0,0,0,24.188,13.5Zm9-6.75H29.813a1.125,1.125,0,0,0-1.125,1.125v27A1.125,1.125,0,0,0,29.813,36h3.375a1.125,1.125,0,0,0,1.125-1.125v-27A1.125,1.125,0,0,0,33.188,6.75Zm9-6.75H38.813a1.125,1.125,0,0,0-1.125,1.125v33.75A1.125,1.125,0,0,0,38.813,36h3.375a1.125,1.125,0,0,0,1.125-1.125V1.125A1.125,1.125,0,0,0,42.188,0Z" transform="translate(1302.076 1242)"/>
  </g>
</svg>
