<?xml version="1.0" encoding="UTF-8"?>
<svg width="100px" height="30px" viewBox="0 0 100 30" version="1.1" xmlns="http://www.w3.org/2000/svg" xmlns:xlink="http://www.w3.org/1999/xlink">
    <!-- Generator: Sketch 59.1 (86144) - https://sketch.com -->
    <title>qr-2</title>
    <desc>Created with Sketch.</desc>
    <g id="Assets---Updated" stroke="none" stroke-width="1" fill="none" fill-rule="evenodd">
        <g id="qr-2">
            <path d="M11.7438779,14.618405 C11.6095597,14.4335187 11.7168325,14.7082914 11.5579688,14.2428368 C11.4968325,14.063405 11.472287,13.8688596 11.4350143,13.7119278 L9.35308246,13.7017005 C9.22262792,15.2343141 9.05933246,21.0453368 9.43262792,22.0857914 C10.0388779,22.3138596 10.8574006,22.3115868 11.4613779,22.0903368 C12.1094461,20.5779505 10.7092188,15.6901096 12.663537,15.5003368 C14.9763779,15.2768141 13.0649006,21.1938596 14.0086506,22.069655 C14.3901279,22.4255641 15.0513779,22.3012459 15.9980825,22.2304505 C16.6201279,20.0673823 14.8506961,14.8748823 18.0354688,15.6755641 C18.5142188,16.5897687 18.316037,20.027155 18.316037,21.3178368 C18.316037,22.614655 19.1029688,22.3686323 20.5389916,22.2223823 C20.7661506,20.5579505 20.6666052,20.1672687 20.6578552,18.4619278 C20.6578552,16.9767005 21.0154688,14.8867005 19.8484234,14.0047687 C19.3255825,13.6067005 18.4594461,13.3911323 17.5989916,13.5840868 C16.6533097,13.7995414 16.4368325,14.3239732 15.9159234,14.7404505 C15.3761506,14.1777232 15.0739916,13.5802232 13.9069461,13.5151096 C12.6477416,13.4436323 12.1208097,13.968405 11.7438779,14.618405" id="Fill-97" fill="#BFC1C2"></path>
            <path d="M50.0154688,14.6097687 C49.9891052,14.5732914 49.9664916,14.4657914 49.9578552,14.4898823 C49.8216052,14.8638596 49.9559234,14.2824959 49.6514916,13.7526096 C48.9083097,13.6423823 48.286037,13.5998823 47.7242188,13.8514732 C47.417287,14.713405 47.4153552,21.2640868 47.7416052,22.0610187 L48.7363779,22.2522687 C49.2613779,22.2642005 49.4353552,22.2401096 49.918537,22.0915868 C50.0528552,20.3660187 49.0162643,15.2745414 51.5787643,15.5245414 C52.472287,16.3111323 52.2271734,17.2601096 52.2252416,18.6301096 C52.2252416,19.2460187 52.2296734,19.8640868 52.2226279,20.4815868 C52.2119461,21.3919278 52.0728552,21.7826096 52.4549006,22.1060187 C52.714787,22.2787459 53.8331961,22.4349959 54.2764916,22.1992005 C54.7303552,21.9572687 54.5541052,21.0044278 54.5495597,20.4794278 C54.5251279,18.0856778 55.089787,14.4206778 53.1825143,13.6848823 C51.4933097,13.0368141 50.7254688,13.9310187 50.0154688,14.6097687" id="Fill-98" fill="#BFC1C2"></path>
            <path d="M33.8904688,24.7445414 C33.1074006,24.5090868 31.7008097,25.2199959 30.8468325,25.490905 C25.472287,27.1978368 18.9644461,26.998405 13.5055825,25.3727232 C12.4583097,25.0614732 11.5145597,24.715905 10.623537,24.3482914 C9.85751428,24.0313596 8.47535519,23.2467005 7.71637792,23.1445414 C7.87785519,24.3073823 11.7458097,26.2223823 12.811037,26.6914732 C14.9258097,27.6223823 17.1384234,28.2792005 20.0027416,28.5294278 C24.5970597,28.9276096 29.0406961,28.0472687 32.9221734,25.8993141 C33.4337643,25.6145414 34.0670597,25.3443141 33.8904688,24.7445414" id="Fill-99" fill="#BFC1C2"></path>
            <path d="M34.5556961,15.4037459 C34.2802416,16.2126096 33.1712643,17.4202232 32.7479688,18.0135187 C31.3651279,19.9385187 31.1138779,19.517155 31.2524006,21.9792005 C32.3176279,21.9318141 32.8578552,21.4115868 34.3263779,21.3852232 C36.0268325,21.3568141 36.5783097,21.8770414 37.8642188,21.8973823 L37.811037,20.1518141 C36.8720597,19.7369278 35.8679688,19.4995414 34.5514916,19.3957914 C35.2599006,17.5378368 38.3228552,15.905905 37.5552416,13.665905 C36.6975143,13.6292005 32.5820597,13.5380641 31.9845597,13.6555641 C31.1750143,13.8140868 31.4417188,15.1270414 31.7333097,15.2999959 C32.0663779,15.4994278 34.0112643,15.3914732 34.5556961,15.4037459" id="Fill-100" fill="#BFC1C2"></path>
            <path d="M31.2543325,23.6712459 C32.1784234,24.1614732 34.1875143,23.1613596 35.078537,24.0030641 C35.7491052,25.1594278 33.9626279,26.5963596 34.5163779,27.5212459 C35.5304688,27.0698823 37.0456961,24.3930641 36.5405825,23.1880641 C36.022287,21.9398823 31.8302416,22.7915868 31.2543325,23.6712459" id="Fill-101" fill="#BFC1C2"></path>
            <path d="M57.4354688,9.16624594 C57.3533097,10.5993141 59.0205825,19.8735187 59.3801279,21.8956778 C59.8391052,24.477155 59.7483097,27.7860187 61.7316052,28.8651096 C63.3054688,29.7210187 64.9824006,29.3937459 67.1567188,29.3937459 L90.8669461,29.3878368 C92.2671734,29.3756778 93.0437643,29.2206778 93.7714916,28.3635187 C94.4659234,27.5440868 94.823537,26.808405 94.6734234,25.5460187 C94.459787,23.765905 92.1859234,8.15408684 91.2969461,6.96715503 C89.8834234,5.06658684 87.739787,5.40579139 85.186037,5.85522321 C81.4852416,6.50556412 74.5003552,7.23317775 71.5208097,7.83295048 C69.4966052,8.23920048 66.7462643,8.41601866 64.6245597,8.75397321 C62.1721734,9.14624594 59.8942188,9.6536323 57.4354688,9.16624594" id="Fill-102" fill="#BFC1C2"></path>
            <path d="M89.949787,2.84954139 C92.9049006,2.8511323 93.2451279,4.81317775 93.6705825,7.32079139 C94.0345597,9.46545048 94.554787,12.0688596 94.826037,14.2760187 C95.1150143,16.6336323 95.591037,19.0588596 95.9595597,21.3617005 C96.0655825,22.0426096 96.2202416,22.3918141 96.2881961,23.0057914 C96.3719461,23.7230641 96.1976279,24.3856778 96.972287,24.2594278 C97.6868325,24.1437459 98.7759234,22.8089732 98.9964916,22.0770414 C99.3341052,20.9667005 97.4329688,9.99374594 97.0889916,7.98567775 C96.7426279,5.94692775 96.5996734,2.71931412 95.4567188,1.4511323 C93.5643325,-0.648413155 91.7514916,-0.0409131551 89.0127416,0.629427754 C86.1214916,1.33556412 78.2037643,2.74999594 74.7564916,3.43476866 L63.9039916,5.53817775 C63.0087643,5.73533684 60.8186506,5.75624594 60.7455825,6.71715503 C60.6511506,7.9898823 63.0967188,7.23965503 63.9213779,7.08533684 C65.2143325,6.84726866 66.2943325,6.71135957 67.6599006,6.49204139 L80.6080825,4.30476866 C81.1637643,4.22135957 81.7170597,4.03010957 82.3217188,3.9511323 C85.102287,3.58135957 87.6279688,2.84954139 89.949787,2.84954139" id="Fill-103" fill="#BFC1C2"></path>
            <path d="M41.5601279,13.6527232 C36.8959234,14.7830641 38.0403552,23.7260187 43.5711506,22.2668141 C47.8852416,21.1287459 47.1795597,12.2914732 41.5601279,13.6527232 Z M41.7776279,15.4365868 C40.6750143,16.292155 40.9506961,22.2252232 43.2329688,20.4748823 C44.3333097,19.629655 44.1725143,13.5751096 41.7776279,15.4365868 L41.7776279,15.4365868 Z" id="Fill-104" fill="#BFC1C2"></path>
            <path d="M22.4926279,16.0695414 L24.4646734,16.3011323 C25.336037,14.4029505 27.0956961,14.7179505 27.0844461,16.6143141 L26.8000143,16.7298823 C26.5951279,16.7911323 26.5931961,16.7992005 26.3506961,16.8503368 C25.1414916,17.0957914 22.0633097,17.0899959 22.1202416,19.9678368 C22.1644461,22.193405 24.3877416,22.7080641 25.9818325,22.1611323 C26.5861506,21.9537459 26.6830825,21.7095414 27.4046734,21.3948823 L28.498537,22.277155 C29.2108097,22.0513596 29.8946734,21.4618141 30.181037,20.9824959 C29.6034234,19.3864732 29.4994461,21.1448823 29.5106961,17.2852232 C29.5126279,15.988405 29.6034234,14.6898823 28.4499006,13.9680641 C26.3986506,12.6837459 22.2659234,13.5898823 22.4926279,16.0695414 Z M27.0995597,18.0889732 C26.2769461,18.0889732 25.4967188,18.1669278 25.0245597,18.6317005 C24.5484234,19.097155 24.4839916,20.0348823 24.8946734,20.4490868 C25.4896734,21.0504505 26.3413779,20.6297687 26.6937643,20.1465868 C27.1109234,19.5748823 27.0995597,18.8899959 27.0995597,18.0889732 L27.0995597,18.0889732 Z" id="Fill-105" fill="#BFC1C2"></path>
            <path d="M0.307059737,16.0393141 L2.2306961,16.3214732 C2.99160519,15.3499959 2.84603701,14.868405 4.51751428,15.215905 C4.95649156,15.8276096 4.99842337,15.9027232 4.94785519,16.7627232 C2.52160519,17.1061323 -0.164190263,17.2704505 0.00785519139,20.144655 C0.0828551914,21.4064732 0.887173373,22.1772687 2.06512792,22.3212459 C4.12933246,22.5754505 4.1031961,21.797155 5.34012792,21.3597687 C5.85615065,21.8499959 5.81433246,21.9778368 6.4344461,22.2910187 C6.8131961,22.1549959 7.73546883,21.4737459 7.84978701,21.2279505 C8.14967337,20.573405 7.4419461,20.3073823 7.36467337,19.3132914 C7.24580974,17.7951096 7.72830974,15.8414732 6.97012792,14.6080641 C5.73921883,12.6180641 0.247741555,13.099655 0.307059737,16.0393141 Z M4.98103701,18.1276096 C3.15296883,18.0326096 1.56240065,19.3248823 2.78410519,20.4857914 C3.40421883,21.0769278 4.22887792,20.5728368 4.51330974,20.2294278 C4.95205974,19.7011323 4.98103701,18.9106778 4.98103701,18.1276096 L4.98103701,18.1276096 Z" id="Fill-106" fill="#BFC1C2"></path>
            <path d="M73.4112643,13.9673823 L73.4067188,15.3679505 C75.0479688,15.4652232 75.286037,14.6870414 77.5286506,15.2803368 C77.7605825,16.0772687 77.7779688,16.0386323 77.7579688,16.9840868 C75.257287,17.0065868 73.0144461,16.8432914 72.9061506,19.4695414 C72.7979688,22.0980641 75.5704688,22.4469278 77.5511506,21.3130641 C77.7737643,21.2785187 77.799787,21.5343141 78.4836506,21.6686323 C78.9559234,21.7627232 79.4584234,21.7072687 79.9389916,21.680905 L79.966037,18.2931778 C79.9767188,16.4332914 80.2855825,14.3030641 78.6602416,13.6014732 C77.0702416,12.9170414 74.8446734,13.3215868 73.4112643,13.9673823" id="Fill-112" fill="#BFC1C2"></path>
            <path d="M63.3537643,14.9324959 L63.3776279,24.9687459 C66.6396734,25.5318141 65.596037,24.2980641 65.7442188,21.3568141 C66.7520597,21.4711323 68.4306961,22.8485187 70.5231961,20.7268141 C71.4981961,19.7369278 71.7034234,17.389655 71.2708097,15.8347687 C70.7505825,13.9706778 70.042287,13.0951096 67.511037,13.3019278 C66.5095597,13.3853368 66.946037,13.4729505 66.3088779,13.7022687 C64.8136506,14.2370414 63.3537643,11.9203368 63.3537643,14.9324959" id="Fill-113" fill="#BFC1C2"></path>
            <path d="M73.4112643,13.9673823 L73.4067188,15.3679505 C75.0479688,15.4652232 75.286037,14.6870414 77.5286506,15.2803368 C77.7605825,16.0772687 77.7779688,16.0386323 77.7579688,16.9840868 C75.257287,17.0065868 73.0144461,16.8432914 72.9061506,19.4695414 C72.7979688,22.0980641 75.5704688,22.4469278 77.5511506,21.3130641 C77.7737643,21.2785187 77.799787,21.5343141 78.4836506,21.6686323 C78.9559234,21.7627232 79.4584234,21.7072687 79.9389916,21.680905 L79.966037,18.2931778 C79.9767188,16.4332914 80.2855825,14.3030641 78.6602416,13.6014732 C77.0702416,12.9170414 74.8446734,13.3215868 73.4112643,13.9673823" id="Fill-114" fill="#282E31"></path>
            <path d="M81.4984234,23.4482914 L81.4239916,24.9729505 C85.3737643,25.9402232 85.7967188,23.3060187 86.6526279,20.7979505 C87.133537,19.3935187 89.1716052,14.6719278 89.2241052,13.5824959 L87.0099006,13.562155 C86.6903552,14.5279505 86.4809234,15.5419278 86.1675143,16.5260187 C85.9733097,17.1354505 85.6736506,18.9872687 85.0780825,19.2695414 C83.2406961,15.2878368 84.6059234,12.8915868 81.3950143,13.4955641 C80.4930825,13.665905 81.1083097,14.1822687 81.5776279,15.4365868 C82.0366052,16.6635187 84.2396734,21.3326096 83.9068325,22.435905 C83.5693325,23.5417005 82.716037,23.3652232 81.4984234,23.4482914" id="Fill-115" fill="#BFC1C2"></path>
            <path d="M65.7400143,15.4665868 C65.6475143,18.6023823 65.2104688,20.1205641 67.1576279,20.1511323 C68.4149006,20.1711323 68.8958097,19.4923823 69.0146734,18.4703368 C69.3084234,15.9722687 68.5404688,14.1004505 65.7400143,15.4665868" id="Fill-116" fill="#BFC1C2"></path>
            <path d="M75.2634234,20.225905 C75.9955825,20.3804505 76.8251279,20.4413596 77.349787,20.1198823 C77.9786506,19.7362459 77.8130825,19.1099959 77.704787,18.3314732 C75.7888779,18.2464732 74.6353552,18.258405 75.2634234,20.225905" id="Fill-117" fill="#BFC1C2"></path>
            <path d="M63.3537643,14.9324959 L63.3776279,24.9687459 C66.6396734,25.5318141 65.596037,24.2980641 65.7442188,21.3568141 C66.7520597,21.4711323 68.4306961,22.8485187 70.5231961,20.7268141 C71.4981961,19.7369278 71.7034234,17.389655 71.2708097,15.8347687 C70.7505825,13.9706778 70.042287,13.0951096 67.511037,13.3019278 C66.5095597,13.3853368 66.946037,13.4729505 66.3088779,13.7022687 C64.8136506,14.2370414 63.3537643,11.9203368 63.3537643,14.9324959" id="Fill-118" fill="#282E31"></path>
            <path d="M81.4984234,23.4482914 L81.4239916,24.9729505 C85.3737643,25.9402232 85.7967188,23.3060187 86.6526279,20.7979505 C87.133537,19.3935187 89.1716052,14.6719278 89.2241052,13.5824959 L87.0099006,13.562155 C86.6903552,14.5279505 86.4809234,15.5419278 86.1675143,16.5260187 C85.9733097,17.1354505 85.6736506,18.9872687 85.0780825,19.2695414 C83.2406961,15.2878368 84.6059234,12.8915868 81.3950143,13.4955641 C80.4930825,13.665905 81.1083097,14.1822687 81.5776279,15.4365868 C82.0366052,16.6635187 84.2396734,21.3326096 83.9068325,22.435905 C83.5693325,23.5417005 82.716037,23.3652232 81.4984234,23.4482914" id="Fill-119" fill="#282E31"></path>
            <path d="M65.7400143,15.4665868 C65.6475143,18.6023823 65.2104688,20.1205641 67.1576279,20.1511323 C68.4149006,20.1711323 68.8958097,19.4923823 69.0146734,18.4703368 C69.3084234,15.9722687 68.5404688,14.1004505 65.7400143,15.4665868" id="Fill-120" fill="#BFC1C2"></path>
            <path d="M75.2634234,20.225905 C75.9955825,20.3804505 76.8251279,20.4413596 77.349787,20.1198823 C77.9786506,19.7362459 77.8130825,19.1099959 77.704787,18.3314732 C75.7888779,18.2464732 74.6353552,18.258405 75.2634234,20.225905" id="Fill-121" fill="#BFC1C2"></path>
        </g>
    </g>
</svg>